{"glyphs":{"0":{"ha":1243,"x_min":63,"x_max":1189,"o":"m 681 0 l 538 0 q 171 65 260 0 q 63 408 63 146 l 63 525 q 164 889 63 803 q 542 968 256 968 l 685 968 q 1074 893 975 968 q 1189 529 1189 806 l 1189 413 q 1136 132 1189 222 q 971 21 1088 47 q 681 0 885 0 m 672 750 l 564 750 q 358 715 404 750 q 304 521 304 672 l 304 421 q 361 243 304 283 q 554 213 406 213 l 676 213 q 885 239 840 213 q 947 425 947 278 l 947 525 q 885 719 947 678 q 672 750 839 750 z "},"1":{"ha":1243,"x_min":174,"x_max":815,"o":"m 575 0 l 575 783 l 518 783 l 290 564 l 174 675 l 469 964 l 815 964 l 815 0 l 575 0 z "},"2":{"ha":1243,"x_min":71,"x_max":1164,"o":"m 800 351 l 538 333 q 369 301 421 325 q 313 224 313 276 l 313 193 l 1158 193 l 1158 0 l 71 0 l 71 222 q 168 444 71 367 q 442 522 249 508 l 761 544 q 892 571 868 551 q 924 664 924 596 q 849 767 924 744 q 706 776 814 776 l 546 776 q 378 754 417 776 q 319 608 319 722 l 78 608 q 146 865 78 789 q 496 969 238 969 l 711 969 q 1038 924 950 969 q 1164 644 1164 856 q 1088 422 1164 488 q 800 351 1022 367 z "},"3":{"ha":1265,"x_min":96,"x_max":1186,"o":"m 508 594 l 797 594 q 901 604 876 594 q 947 685 947 621 q 860 768 947 753 q 719 772 838 772 l 546 772 q 404 761 446 772 q 321 667 321 739 l 96 667 l 96 703 q 236 931 96 875 q 529 964 319 964 l 731 964 q 1036 936 956 964 q 1186 706 1186 882 q 1151 550 1186 592 q 1001 503 1111 503 q 1147 442 1108 490 q 1186 283 1186 394 q 1128 79 1186 144 q 972 8 1078 24 q 751 0 917 0 l 532 0 q 235 32 317 0 q 96 264 96 88 l 96 282 l 328 282 q 379 204 328 222 q 532 192 415 192 l 736 192 q 874 199 846 192 q 947 294 947 218 q 906 385 947 363 q 801 401 876 401 l 508 401 l 508 594 z "},"4":{"ha":1243,"x_min":107,"x_max":1219,"o":"m 1083 401 l 1219 401 l 1219 208 l 1083 208 l 1083 0 l 842 0 l 842 208 l 107 208 l 107 506 l 768 964 l 1083 964 l 1083 401 m 842 756 l 806 756 l 347 438 l 347 401 l 842 401 l 842 756 z "},"5":{"ha":1243,"x_min":85,"x_max":1179,"o":"m 807 -1 l 447 -1 q 85 272 85 -1 l 326 272 q 378 200 326 217 q 475 192 404 192 l 811 192 q 906 235 872 192 q 938 336 938 274 q 811 482 938 482 l 433 482 q 344 435 356 482 l 103 435 l 103 964 l 1126 964 l 1126 797 l 344 797 l 344 647 q 435 675 374 675 l 807 675 q 1088 603 1003 675 q 1179 336 1179 526 q 1089 67 1179 143 q 807 -1 1007 -1 z "},"6":{"ha":1243,"x_min":75,"x_max":1168,"o":"m 760 619 q 1063 569 976 619 q 1168 339 1168 508 l 1168 283 q 1068 40 1168 104 q 797 -11 990 -11 l 482 -11 q 171 58 256 -11 q 75 356 75 138 l 75 625 q 182 911 75 835 q 492 974 269 974 l 736 974 q 1008 947 924 974 q 1160 756 1160 900 l 1160 700 l 935 700 q 869 768 935 756 q 760 772 850 772 l 497 772 q 375 757 410 772 q 317 661 317 733 l 317 554 q 379 596 354 586 q 551 619 438 619 l 760 619 m 501 189 l 749 189 q 879 204 844 189 q 935 310 935 229 q 876 414 935 388 q 749 431 839 431 l 496 431 q 371 413 410 431 q 314 310 314 385 q 372 204 314 231 q 501 189 407 189 z "},"7":{"ha":1243,"x_min":81,"x_max":1186,"o":"m 1186 964 l 1186 804 l 525 0 l 225 0 l 864 772 l 81 772 l 81 964 l 1186 964 z "},"8":{"ha":1243,"x_min":72,"x_max":1168,"o":"m 1168 692 q 975 494 1168 494 q 1107 446 1067 479 q 1168 278 1168 394 q 1067 42 1168 107 q 804 -11 986 -11 l 435 -11 q 178 38 260 -11 q 72 263 72 101 q 117 422 72 368 q 267 494 163 475 q 132 539 174 507 q 72 692 72 585 q 172 924 72 860 q 435 974 253 974 l 804 974 q 1067 924 986 974 q 1168 692 1168 860 m 315 692 q 372 596 315 621 q 492 578 410 578 l 749 578 q 871 594 833 578 q 928 692 928 619 q 872 794 928 767 q 749 814 833 814 l 492 814 q 368 794 404 814 q 315 692 315 768 m 315 288 q 492 164 315 164 l 749 164 q 874 185 833 164 q 928 288 928 213 q 871 388 928 360 q 749 406 832 406 l 492 406 q 315 288 315 406 z "},"9":{"ha":1243,"x_min":76,"x_max":1169,"o":"m 447 338 q 175 399 258 338 q 76 649 76 469 q 189 906 76 831 q 476 968 282 968 l 736 968 q 1049 906 951 968 q 1169 625 1169 826 l 1169 356 q 1058 57 1169 142 q 736 -17 961 -17 l 526 -17 q 233 26 332 -17 q 85 256 85 89 l 313 256 q 397 165 313 185 q 538 157 433 157 l 719 157 q 874 183 833 157 q 929 328 929 219 l 929 413 q 825 343 900 358 q 693 338 793 338 l 447 338 m 749 765 l 485 765 q 367 750 399 765 q 315 654 315 728 q 357 546 315 574 q 479 524 392 524 l 771 524 q 892 546 857 524 q 935 654 935 574 q 874 751 935 728 q 749 765 839 765 z "}," ":{"ha":763,"x_min":0,"x_max":0,"o":""},"!":{"ha":481,"x_min":128,"x_max":369,"o":"m 128 964 l 367 964 l 367 347 l 128 347 l 128 964 m 128 232 l 369 232 l 369 0 l 128 0 l 128 232 z "},"\"":{"ha":514,"x_min":67,"x_max":458,"o":"m 226 983 l 193 668 l 99 668 l 67 983 l 226 983 m 458 983 l 425 668 l 329 668 l 297 983 l 458 983 z "},"#":{"ha":914,"x_min":50,"x_max":871,"o":"m 446 940 l 399 760 l 613 760 l 660 940 l 739 940 l 692 760 l 871 760 l 851 682 l 672 682 l 626 510 l 804 510 l 785 432 l 607 432 l 557 244 l 478 244 l 528 432 l 314 432 l 265 250 l 186 250 l 233 432 l 50 432 l 71 510 l 254 510 l 299 682 l 115 682 l 136 760 l 319 760 l 367 940 l 446 940 m 378 682 l 333 510 l 547 510 l 592 682 l 378 682 z "},"$":{"ha":1292,"x_min":89,"x_max":1265,"o":"m 433 399 q 150 468 219 399 q 92 692 92 526 q 203 915 92 850 q 463 968 292 968 l 594 968 l 594 1056 l 751 1056 l 751 968 l 939 968 q 1175 911 1100 968 q 1263 692 1263 846 l 1006 692 q 888 772 1006 772 l 751 772 l 751 592 l 878 592 q 1183 542 1111 592 q 1265 296 1265 485 q 1151 47 1265 114 q 865 -4 1065 -4 l 751 -4 l 751 -124 l 594 -124 l 594 -4 l 468 -4 q 204 49 294 -4 q 89 275 89 115 l 338 275 q 454 194 338 194 l 594 194 l 594 399 l 433 399 m 853 194 q 971 208 942 194 q 1014 296 1014 229 q 963 385 1014 363 q 853 399 929 399 l 751 399 l 751 194 l 853 194 m 433 772 q 381 746 400 772 q 361 685 361 719 q 433 592 361 592 l 594 592 l 594 772 l 433 772 z "},"%":{"ha":1858,"x_min":61,"x_max":1807,"o":"m 472 390 l 376 390 q 132 435 192 390 q 61 663 61 488 l 61 740 q 129 983 61 925 q 381 1036 190 1036 l 475 1036 q 733 986 668 1036 q 811 743 811 926 l 811 665 q 731 431 811 483 q 472 390 671 390 m 853 -46 l 707 -46 l 1003 1011 l 1149 1011 l 853 -46 m 1468 -10 l 1372 -10 q 1128 33 1186 -10 q 1056 263 1056 88 l 1056 340 q 1124 583 1056 525 q 1375 636 1185 636 l 1471 636 q 1729 586 1664 636 q 1807 343 1807 526 l 1807 265 q 1726 31 1807 83 q 1468 -10 1667 -10 m 1461 490 l 1389 490 q 1253 467 1283 490 q 1218 338 1218 439 l 1218 271 q 1254 153 1218 178 q 1383 132 1283 132 l 1465 132 q 1604 150 1574 132 q 1646 274 1646 176 l 1646 340 q 1604 469 1646 443 q 1461 490 1574 490 m 467 890 l 394 890 q 258 867 288 890 q 222 738 222 839 l 222 671 q 260 551 222 578 q 389 532 288 532 l 469 532 q 608 550 578 532 q 650 674 650 576 l 650 740 q 610 871 650 843 q 467 890 579 890 z "},"&":{"ha":1424,"x_min":72,"x_max":1424,"o":"m 901 0 l 425 0 q 169 83 263 0 q 72 333 72 172 q 310 606 72 561 q 246 724 246 639 q 356 922 246 865 q 594 964 436 964 l 899 964 q 1146 907 1065 964 q 1238 685 1238 842 l 997 685 q 858 772 997 772 l 604 772 q 526 765 549 772 q 486 708 486 751 q 521 646 486 674 q 601 601 524 644 l 1068 347 q 1092 531 1092 389 l 1332 531 q 1269 240 1332 335 l 1424 154 l 1321 3 l 1158 89 q 1078 25 1118 42 q 901 0 1018 0 m 314 332 q 372 218 314 250 q 508 193 417 193 l 754 193 q 924 219 868 193 l 453 471 q 314 332 314 471 z "},"'":{"ha":360,"x_min":104,"x_max":264,"o":"m 264 983 l 232 668 l 136 668 l 104 983 l 264 983 z "},"(":{"ha":475,"x_min":49,"x_max":425,"o":"m 425 -164 q 49 182 49 -164 l 49 699 q 425 1053 49 1053 l 425 861 q 293 826 332 861 q 250 699 250 790 l 250 182 q 425 31 250 31 l 425 -164 z "},")":{"ha":475,"x_min":57,"x_max":432,"o":"m 231 182 l 231 699 q 190 825 231 789 q 57 861 149 861 l 57 1053 q 432 699 432 1053 l 432 182 q 57 -164 432 -164 l 57 31 q 231 182 231 31 z "},"*":{"ha":497,"x_min":56,"x_max":456,"o":"m 399 735 q 456 682 456 724 q 441 647 456 661 q 406 632 426 632 q 353 658 379 632 l 263 749 l 299 628 l 303 601 q 251 547 303 547 q 201 597 201 547 q 207 628 201 611 l 247 747 l 158 653 q 107 626 133 626 q 57 674 57 626 q 113 728 57 714 l 240 761 l 111 786 q 56 839 56 797 q 103 888 56 888 q 156 861 128 888 l 249 772 l 207 892 q 201 921 201 907 q 253 972 201 972 q 303 921 303 972 l 299 892 l 261 772 l 347 865 q 399 892 372 892 q 449 843 449 892 q 393 790 449 803 l 269 761 l 399 735 z "},"+":{"ha":815,"x_min":96,"x_max":715,"o":"m 304 544 l 304 746 l 506 746 l 506 544 l 715 544 l 715 353 l 506 353 l 506 151 l 304 151 l 304 353 l 96 353 l 96 544 l 304 544 z "},",":{"ha":481,"x_min":67,"x_max":388,"o":"m 107 269 l 388 269 l 388 0 q 303 -208 388 -157 q 67 -249 239 -249 l 67 -119 q 142 -107 119 -119 q 171 -43 171 -90 l 171 0 l 107 0 l 107 269 z "},"-":{"ha":778,"x_min":99,"x_max":688,"o":"m 688 547 l 688 356 l 99 356 l 99 547 l 688 547 z "},".":{"ha":475,"x_min":107,"x_max":389,"o":"m 107 232 l 389 232 l 389 0 l 107 0 l 107 232 z "},"/":{"ha":489,"x_min":11,"x_max":493,"o":"m 172 -124 l 11 -124 l 332 1011 l 493 1011 l 172 -124 z "},":":{"ha":475,"x_min":107,"x_max":389,"o":"m 107 232 l 389 232 l 389 0 l 107 0 l 107 232 m 107 669 l 389 669 l 389 439 l 107 439 l 107 669 z "},";":{"ha":475,"x_min":67,"x_max":389,"o":"m 107 669 l 389 669 l 389 439 l 107 439 l 107 669 m 107 269 l 388 269 l 388 0 q 303 -208 388 -157 q 67 -249 239 -249 l 67 -119 q 142 -107 119 -119 q 171 -43 171 -90 l 171 0 l 107 0 l 107 269 z "},"<":{"ha":531,"x_min":44,"x_max":458,"o":"m 44 546 l 458 815 l 458 629 l 214 481 l 458 331 l 458 144 l 44 408 l 44 546 z "},"=":{"ha":778,"x_min":99,"x_max":688,"o":"m 688 388 l 688 233 l 99 233 l 99 388 l 688 388 m 688 665 l 688 511 l 99 511 l 99 665 l 688 665 z "},">":{"ha":531,"x_min":69,"x_max":481,"o":"m 69 144 l 69 331 l 314 481 l 69 629 l 69 815 l 481 546 l 481 408 l 69 144 z "},"?":{"ha":1253,"x_min":64,"x_max":1189,"o":"m 669 343 l 669 306 l 431 306 l 431 394 q 511 557 431 506 q 697 607 571 593 q 854 625 839 622 q 949 699 949 642 q 876 775 949 758 q 757 781 850 781 l 474 781 q 304 671 304 781 l 64 671 q 156 908 64 836 q 410 974 238 974 l 858 974 q 1103 922 1031 974 q 1189 699 1189 861 q 1110 501 1189 554 q 814 429 1040 456 q 718 414 736 421 q 669 343 669 394 m 429 232 l 669 232 l 669 0 l 429 0 l 429 232 z "},"@":{"ha":1317,"x_min":125,"x_max":1172,"o":"m 1049 271 l 946 272 l 885 269 l 885 300 q 810 269 857 269 l 543 269 q 425 304 483 269 q 358 399 358 343 l 358 446 q 431 532 358 496 q 546 561 490 561 l 806 561 q 883 507 867 561 l 883 564 q 782 644 883 644 l 604 644 q 499 589 499 644 l 499 579 l 394 579 l 394 589 q 464 694 394 647 q 588 736 526 736 l 788 736 q 906 682 863 736 q 946 556 946 633 l 946 376 l 1006 376 q 1063 378 996 376 q 1151 364 1129 379 q 1172 335 1172 349 q 1156 311 1172 322 l 1165 311 q 1068 110 1165 182 q 846 46 981 46 l 542 46 q 228 138 326 46 q 125 447 125 233 l 125 517 q 565 942 125 942 l 843 942 q 1065 864 974 942 q 1164 654 1164 782 l 1047 654 q 843 815 1047 815 l 554 815 q 315 753 381 815 q 249 518 249 690 l 249 447 q 306 221 249 276 q 532 165 363 165 l 843 165 q 978 175 946 165 q 1049 271 1049 196 m 778 483 l 554 483 q 492 476 510 483 q 461 426 461 464 l 461 397 q 494 360 461 367 q 554 358 503 358 l 778 358 q 847 365 833 358 q 869 411 869 376 q 778 483 869 483 z "},"A":{"ha":1419,"x_min":11,"x_max":1425,"o":"m 529 964 l 908 964 l 1425 0 l 1144 0 l 1022 232 l 414 232 l 292 0 l 11 0 l 529 964 m 728 783 l 717 783 l 518 425 l 918 425 l 728 783 z "},"B":{"ha":1281,"x_min":89,"x_max":1214,"o":"m 856 964 q 1078 922 1013 964 q 1161 724 1161 869 q 1154 601 1161 629 q 1081 513 1139 539 q 1192 429 1161 497 q 1214 283 1214 379 q 1152 64 1214 128 q 936 0 1090 0 l 89 0 l 89 964 l 856 964 m 331 601 l 819 601 q 922 686 922 601 q 818 772 922 772 l 331 772 l 331 601 m 331 193 l 856 193 q 972 307 972 193 q 938 389 972 365 q 846 408 908 408 l 331 408 l 331 193 z "},"C":{"ha":1314,"x_min":64,"x_max":1247,"o":"m 532 -1 q 176 69 271 -1 q 64 403 64 154 l 64 525 q 167 886 64 799 q 540 964 260 964 l 754 964 q 1006 953 936 964 q 1179 869 1124 933 q 1244 636 1244 793 l 997 636 q 956 721 997 699 q 743 750 901 750 l 557 750 q 356 718 396 750 q 306 528 306 679 l 306 422 q 357 242 306 281 q 549 208 399 208 l 746 208 q 914 217 882 208 q 999 335 999 240 l 1247 335 q 1161 71 1247 135 q 751 -1 1064 -1 l 532 -1 z "},"D":{"ha":1296,"x_min":88,"x_max":1218,"o":"m 797 964 q 1117 886 1024 964 q 1218 581 1218 801 l 1218 394 q 1133 82 1218 165 q 818 -1 1049 -1 l 88 -1 l 88 964 l 797 964 m 760 192 q 933 235 889 192 q 978 406 978 278 l 978 567 q 930 729 978 686 q 760 772 882 772 l 329 772 l 329 192 l 760 192 z "},"E":{"ha":1204,"x_min":99,"x_max":1124,"o":"m 99 964 l 1124 964 l 1124 772 l 338 772 l 338 594 l 1099 594 l 1099 401 l 338 401 l 338 193 l 1124 193 l 1124 0 l 99 0 l 99 964 z "},"F":{"ha":1175,"x_min":86,"x_max":1113,"o":"m 86 964 l 1113 964 l 1113 772 l 328 772 l 328 594 l 1088 594 l 1088 401 l 328 401 l 328 0 l 86 0 l 86 964 z "},"G":{"ha":1333,"x_min":69,"x_max":1264,"o":"m 751 756 l 563 756 q 361 717 407 756 q 310 521 310 672 l 310 419 q 363 243 310 283 q 551 208 408 208 l 749 208 q 917 215 886 208 q 1017 321 1017 235 l 1017 393 l 653 393 l 653 581 l 1264 581 l 1264 388 q 1143 60 1264 139 q 779 0 1050 0 l 529 0 q 183 67 275 0 q 69 386 69 147 l 69 536 q 172 886 69 799 q 535 968 265 968 l 754 968 q 1099 932 1006 968 q 1264 667 1264 869 l 1015 667 q 910 754 1015 739 q 751 756 896 756 z "},"H":{"ha":1249,"x_min":76,"x_max":1176,"o":"m 76 964 l 318 964 l 318 594 l 936 594 l 936 964 l 1176 964 l 1176 0 l 936 0 l 936 401 l 318 401 l 318 0 l 76 0 l 76 964 z "},"I":{"ha":474,"x_min":128,"x_max":367,"o":"m 128 0 l 128 964 l 367 964 l 367 0 l 128 0 z "},"J":{"ha":1121,"x_min":39,"x_max":1049,"o":"m 279 415 l 279 350 q 364 213 279 244 q 543 193 414 193 q 739 221 690 193 q 807 393 807 261 l 807 964 l 1049 964 l 1049 374 q 965 86 1049 172 q 682 0 882 0 l 410 0 q 132 75 219 0 q 39 343 39 157 l 39 415 l 279 415 z "},"K":{"ha":1276,"x_min":92,"x_max":1232,"o":"m 92 964 l 332 964 l 332 625 l 449 625 l 910 964 l 1232 964 l 650 539 l 1206 0 l 903 0 l 453 432 l 332 432 l 332 0 l 92 0 l 92 964 z "},"L":{"ha":1015,"x_min":86,"x_max":944,"o":"m 86 964 l 328 964 l 328 194 l 944 194 l 944 0 l 86 0 l 86 964 z "},"M":{"ha":1758,"x_min":103,"x_max":1674,"o":"m 103 964 l 474 964 l 888 254 l 1314 964 l 1674 964 l 1674 0 l 1433 0 l 1433 708 l 1017 0 l 757 0 l 342 708 l 342 0 l 103 0 l 103 964 z "},"N":{"ha":1382,"x_min":96,"x_max":1283,"o":"m 96 964 l 454 964 l 1042 304 l 1042 964 l 1283 964 l 1283 0 l 996 0 l 335 721 l 335 0 l 96 0 l 96 964 z "},"O":{"ha":1324,"x_min":63,"x_max":1258,"o":"m 750 0 l 538 0 q 172 68 264 0 q 63 408 63 150 l 63 525 q 165 888 63 800 q 542 968 258 968 l 754 968 q 1143 893 1044 968 q 1258 529 1258 806 l 1258 413 q 1206 132 1258 222 q 1040 21 1157 47 q 750 0 954 0 m 742 750 l 564 750 q 358 715 404 750 q 304 521 304 672 l 304 421 q 361 243 304 283 q 554 213 406 213 l 746 213 q 954 239 910 213 q 1017 425 1017 278 l 1017 525 q 954 719 1017 678 q 742 750 908 750 z "},"P":{"ha":1156,"x_min":82,"x_max":1117,"o":"m 751 964 q 1019 903 935 964 q 1117 656 1117 831 l 1117 589 q 1028 344 1117 413 q 767 286 951 286 l 322 286 l 322 0 l 82 0 l 82 964 l 751 964 m 876 614 l 876 633 q 848 713 876 692 q 757 733 819 733 l 322 733 l 322 517 l 763 517 q 849 537 822 517 q 876 614 876 557 z "},"Q":{"ha":1342,"x_min":63,"x_max":1353,"o":"m 750 0 l 538 0 q 171 65 260 0 q 63 408 63 146 l 63 525 q 164 889 63 803 q 542 968 256 968 l 754 968 q 1143 893 1044 968 q 1258 529 1258 806 l 1258 413 q 1247 238 1258 303 l 1353 172 l 1226 -22 l 1115 46 q 750 0 1015 0 m 1017 425 l 1017 525 q 954 719 1017 678 q 742 750 908 750 l 564 750 q 358 715 404 750 q 304 521 304 672 l 304 421 q 361 243 304 283 q 554 213 406 213 l 746 213 l 843 215 l 582 378 l 721 564 l 1015 382 l 1017 425 z "},"R":{"ha":1285,"x_min":85,"x_max":1204,"o":"m 1204 200 l 1204 0 l 964 0 l 964 150 q 800 288 964 288 l 326 288 l 326 0 l 85 0 l 85 964 l 829 964 q 1097 903 1013 964 q 1194 656 1194 831 l 1194 589 q 1183 472 1194 511 q 1115 383 1167 414 q 1204 200 1204 353 m 954 614 l 954 633 q 924 715 954 693 q 835 733 899 733 l 322 733 l 322 517 l 840 517 q 925 535 901 517 q 954 614 954 556 z "},"S":{"ha":1296,"x_min":60,"x_max":1233,"o":"m 421 964 l 861 964 q 1232 692 1232 964 l 974 692 q 938 761 974 744 q 851 772 914 772 l 447 772 q 331 682 331 772 q 363 613 331 629 q 447 600 382 603 l 892 583 q 1147 535 1089 576 q 1233 293 1233 474 q 1146 58 1233 125 q 896 0 1069 0 l 399 0 q 154 53 232 0 q 61 274 61 117 l 306 274 q 346 211 306 232 q 424 193 378 193 l 825 193 q 931 207 899 193 q 982 290 982 228 q 929 381 982 358 q 815 397 899 394 l 431 413 q 143 458 200 422 q 60 685 60 513 q 163 914 60 850 q 421 964 243 964 z "},"T":{"ha":1156,"x_min":39,"x_max":1122,"o":"m 1122 964 l 1122 768 l 700 768 l 700 0 l 461 0 l 461 768 l 39 768 l 39 964 l 1122 964 z "},"U":{"ha":1294,"x_min":68,"x_max":1238,"o":"m 308 964 l 308 365 q 367 222 308 260 q 526 193 413 193 l 786 193 q 942 225 896 193 q 997 367 997 264 l 997 964 l 1238 964 l 1238 343 q 1132 64 1238 139 q 829 0 1044 0 l 474 0 q 176 68 268 0 q 68 343 68 147 l 68 964 l 308 964 z "},"V":{"ha":1419,"x_min":22,"x_max":1403,"o":"m 299 964 l 714 167 l 1128 964 l 1403 964 l 903 0 l 521 0 l 22 964 l 299 964 z "},"W":{"ha":2010,"x_min":28,"x_max":1993,"o":"m 769 0 l 418 0 l 28 964 l 276 964 l 589 189 l 603 189 l 886 964 l 1135 964 l 1419 194 l 1439 194 l 1744 964 l 1993 964 l 1604 0 l 1253 0 l 1011 656 l 769 0 z "},"X":{"ha":1421,"x_min":0,"x_max":1413,"o":"m 361 964 l 708 633 l 1054 964 l 1339 964 l 883 510 l 1413 0 l 1110 0 l 708 381 l 304 0 l 0 0 l 532 510 l 74 964 l 361 964 z "},"Y":{"ha":1274,"x_min":31,"x_max":1244,"o":"m 318 964 l 644 529 l 971 964 l 1244 964 l 764 325 l 764 0 l 522 0 l 522 325 l 31 964 l 318 964 z "},"Z":{"ha":1251,"x_min":51,"x_max":1179,"o":"m 1179 964 l 1179 769 l 432 193 l 1179 193 l 1179 0 l 51 0 l 51 189 l 825 772 l 51 772 l 51 964 l 1179 964 z "},"[":{"ha":418,"x_min":93,"x_max":364,"o":"m 360 981 l 254 981 l 254 -79 l 364 -79 l 364 -156 l 93 -154 l 93 1057 l 360 1057 l 360 981 z "},"\\":{"ha":489,"x_min":8,"x_max":490,"o":"m 490 -124 l 329 -124 l 8 1011 l 169 1011 l 490 -124 z "},"]":{"ha":418,"x_min":72,"x_max":344,"o":"m 344 -154 l 72 -156 l 72 -79 l 183 -79 l 183 981 l 76 981 l 76 1057 l 344 1057 l 344 -154 z "},"^":{"ha":586,"x_min":57,"x_max":538,"o":"m 268 890 l 326 890 l 538 467 l 490 467 l 297 738 l 103 467 l 57 467 l 268 890 z "},"_":{"ha":563,"x_min":1,"x_max":588,"o":"m 588 -43 l 588 -119 l 1 -119 l 1 -43 l 588 -43 z "},"`":{"ha":463,"x_min":68,"x_max":394,"o":"m 340 769 l 68 950 l 178 1053 l 394 815 l 340 769 z "},"a":{"ha":1082,"x_min":81,"x_max":994,"o":"m 383 440 l 532 440 q 731 422 676 440 q 792 371 771 408 l 792 424 q 742 528 792 501 q 619 544 708 544 l 468 544 q 315 488 315 544 l 86 488 q 393 686 86 686 l 656 686 q 994 426 994 686 l 994 0 l 793 0 l 793 78 q 735 22 765 35 q 542 0 682 0 l 382 0 q 178 32 246 0 q 81 197 81 78 l 81 236 q 174 408 81 363 q 383 440 239 440 m 315 219 q 353 163 315 176 q 428 154 375 154 l 658 154 q 738 161 715 154 q 778 219 778 175 q 736 278 778 263 q 658 286 713 286 l 428 286 q 351 279 371 286 q 315 219 315 265 z "},"b":{"ha":1132,"x_min":81,"x_max":1054,"o":"m 321 88 l 321 0 l 81 0 l 81 964 l 321 964 l 321 585 q 579 689 364 689 l 681 689 q 1054 382 1054 689 l 1054 303 q 953 64 1054 138 q 692 0 865 0 l 590 0 q 321 88 376 0 m 328 333 q 526 175 328 175 l 618 175 q 760 203 717 175 q 814 328 814 236 l 814 356 q 761 485 814 450 q 618 514 719 514 l 538 514 q 390 488 439 514 q 328 361 328 451 l 328 333 z "},"c":{"ha":1015,"x_min":53,"x_max":963,"o":"m 963 228 q 836 31 963 79 q 578 0 760 0 l 469 0 q 174 44 257 0 q 53 296 53 108 l 53 385 q 164 638 53 569 q 450 689 249 689 l 558 689 q 826 661 749 689 q 963 460 963 611 l 963 446 l 733 446 q 651 518 733 503 q 528 525 619 525 l 472 525 q 319 497 364 525 q 260 363 260 461 l 260 318 q 324 189 260 225 q 474 163 371 163 l 532 163 q 657 169 626 163 q 733 249 733 186 l 963 249 l 963 228 z "},"d":{"ha":1132,"x_min":69,"x_max":1043,"o":"m 432 0 q 171 64 258 0 q 69 303 69 138 l 69 382 q 443 689 69 689 l 544 689 q 803 585 760 689 l 803 964 l 1043 964 l 1043 0 l 803 0 l 803 88 q 682 11 767 31 q 533 0 631 0 l 432 0 m 589 514 l 508 514 q 365 485 408 514 q 314 356 314 450 l 314 328 q 368 203 314 236 q 508 175 410 175 l 601 175 q 743 206 697 175 q 799 333 799 243 l 799 361 q 736 486 799 451 q 589 514 689 514 z "},"e":{"ha":1008,"x_min":53,"x_max":963,"o":"m 467 -1 q 174 46 261 -1 q 53 296 53 111 l 53 389 q 163 636 53 569 q 444 689 249 689 l 558 689 q 850 643 769 689 q 963 392 963 581 l 963 292 l 274 292 l 274 265 q 435 157 274 157 l 585 157 q 682 160 667 157 q 738 224 738 172 l 963 224 l 963 210 q 824 29 963 78 q 572 -1 736 -1 l 467 -1 m 576 528 l 426 528 q 276 419 276 528 l 738 419 q 576 528 738 528 z "},"f":{"ha":739,"x_min":44,"x_max":681,"o":"m 681 689 l 681 499 l 374 499 l 374 0 l 133 0 l 133 499 l 44 499 l 44 689 l 133 689 l 133 721 q 210 913 133 853 q 417 964 278 964 l 657 964 l 657 772 l 468 772 q 400 763 418 772 q 374 703 374 747 l 374 689 l 681 689 z "},"g":{"ha":1118,"x_min":71,"x_max":1044,"o":"m 425 686 l 546 686 q 731 658 667 686 q 804 599 769 642 l 804 686 l 1044 686 l 1044 50 q 951 -228 1044 -144 q 667 -306 865 -306 l 450 -306 q 213 -258 304 -306 q 93 -67 93 -197 l 333 -67 q 508 -142 333 -142 l 621 -142 q 757 -114 717 -142 q 804 11 804 -79 l 804 100 q 707 14 779 36 q 569 0 661 0 l 433 0 q 71 297 71 0 l 71 381 q 425 686 71 686 m 589 514 l 508 514 q 365 485 408 514 q 314 356 314 450 l 314 328 q 368 203 314 236 q 508 175 410 175 l 601 175 q 743 206 697 175 q 799 333 799 243 l 799 361 q 736 486 799 451 q 589 514 689 514 z "},"h":{"ha":1142,"x_min":81,"x_max":1071,"o":"m 699 686 q 971 622 885 686 q 1071 372 1071 549 l 1071 -1 l 829 -1 l 829 356 q 776 493 829 456 q 626 525 732 525 l 510 525 q 322 336 322 525 l 322 -1 l 81 -1 l 81 964 l 319 964 l 319 588 q 410 668 356 646 q 531 686 454 686 l 699 686 z "},"i":{"ha":431,"x_min":101,"x_max":342,"o":"m 342 686 l 342 0 l 101 0 l 101 686 l 342 686 m 342 964 l 342 779 l 101 779 l 101 964 l 342 964 z "},"j":{"ha":493,"x_min":25,"x_max":400,"o":"m 157 686 l 399 686 l 399 17 q 308 -243 399 -181 q 25 -294 235 -294 l 25 -101 q 157 15 157 -101 l 157 686 m 400 964 l 400 779 l 158 779 l 158 964 l 400 964 z "},"k":{"ha":935,"x_min":68,"x_max":919,"o":"m 68 964 l 308 964 l 308 463 l 347 463 l 613 686 l 882 686 l 551 408 l 919 0 l 651 0 l 350 344 l 308 344 l 308 0 l 68 0 l 68 964 z "},"l":{"ha":424,"x_min":96,"x_max":335,"o":"m 335 964 l 335 0 l 96 0 l 96 964 l 335 964 z "},"m":{"ha":1682,"x_min":82,"x_max":1619,"o":"m 1268 686 q 1619 422 1619 686 l 1619 0 l 1374 0 l 1374 379 q 1347 479 1374 449 q 1201 525 1308 525 l 1158 525 q 972 367 972 525 l 972 0 l 726 0 l 726 371 q 676 494 726 458 q 540 525 633 525 l 497 525 q 328 375 328 525 l 328 0 l 82 0 l 82 686 l 328 686 l 328 581 q 583 686 372 686 l 636 686 q 811 674 750 686 q 954 586 915 651 q 1203 686 1011 686 l 1268 686 z "},"n":{"ha":1067,"x_min":71,"x_max":1003,"o":"m 629 686 q 899 621 808 686 q 1003 374 1003 546 l 1003 0 l 763 0 l 763 336 q 554 525 763 525 l 519 525 q 371 479 424 525 q 314 336 314 429 l 314 0 l 71 0 l 71 686 l 310 686 l 310 586 q 554 686 363 686 l 629 686 z "},"o":{"ha":1017,"x_min":61,"x_max":971,"o":"m 446 689 l 569 689 q 863 631 775 689 q 971 367 971 560 l 971 310 q 899 71 971 143 q 660 -1 826 -1 l 372 -1 q 135 73 210 -1 q 61 310 61 147 l 61 367 q 161 629 61 557 q 446 689 244 689 m 758 333 l 758 361 q 699 489 758 454 q 551 514 654 514 l 479 514 q 332 489 375 514 q 274 361 274 456 l 274 333 q 328 204 274 239 q 471 175 371 175 l 561 175 q 704 204 661 175 q 758 333 758 239 z "},"p":{"ha":1104,"x_min":72,"x_max":1046,"o":"m 683 689 q 949 621 861 689 q 1046 375 1046 546 l 1046 307 q 672 0 1046 0 l 571 0 q 313 104 354 0 l 313 -278 l 72 -278 l 72 689 l 313 689 l 313 601 q 582 689 365 689 l 683 689 m 325 333 q 522 175 325 175 l 615 175 q 756 203 711 175 q 810 328 810 239 l 810 356 q 757 485 810 449 q 615 514 714 514 l 535 514 q 388 488 436 514 q 325 361 325 451 l 325 333 z "},"q":{"ha":1113,"x_min":51,"x_max":1025,"o":"m 786 601 l 786 689 l 1025 689 l 1025 -278 l 786 -278 l 786 104 q 528 0 742 0 l 426 0 q 51 307 51 0 l 51 375 q 149 621 51 546 q 414 689 236 689 l 515 689 q 786 601 731 689 m 567 514 l 485 514 q 342 485 385 514 q 290 356 290 450 l 290 328 q 344 203 290 239 q 485 175 389 175 l 578 175 q 719 206 674 175 q 775 333 775 243 l 775 361 q 713 486 775 451 q 567 514 665 514 z "},"r":{"ha":972,"x_min":60,"x_max":936,"o":"m 696 407 q 649 499 696 468 q 543 525 608 525 l 481 525 q 352 483 401 525 q 303 361 303 440 l 303 0 l 60 0 l 60 686 l 303 686 l 303 585 q 504 686 356 686 l 601 686 q 936 407 936 686 l 696 407 z "},"s":{"ha":1008,"x_min":58,"x_max":958,"o":"m 269 204 q 360 149 269 149 l 625 149 q 719 204 719 149 q 625 258 719 257 l 303 264 q 132 299 188 265 q 60 449 60 342 l 60 482 q 144 650 60 601 q 342 689 211 689 l 665 689 q 868 657 807 689 q 953 483 953 611 l 728 483 q 608 538 728 538 l 358 538 q 272 488 272 538 q 301 449 272 457 q 357 444 314 446 l 671 439 q 893 393 832 436 q 958 244 958 346 l 958 208 q 671 -1 958 -1 l 329 -1 q 139 38 203 -1 q 58 204 58 86 l 269 204 z "},"t":{"ha":1013,"x_min":31,"x_max":965,"o":"m 504 165 l 568 165 q 718 281 718 165 l 965 281 q 844 50 965 115 q 569 0 753 0 l 490 0 q 225 58 313 0 q 118 297 118 129 l 118 494 l 31 494 l 31 686 l 118 686 l 118 818 l 358 818 l 358 686 l 864 686 l 864 494 l 358 494 l 358 286 q 504 165 358 165 z "},"u":{"ha":1150,"x_min":75,"x_max":1067,"o":"m 431 -1 q 75 308 75 -1 l 75 686 l 317 686 l 317 349 q 367 200 317 242 q 522 161 413 161 l 617 161 q 824 349 824 161 l 824 686 l 1067 686 l 1067 0 l 826 0 l 826 86 q 617 -1 761 -1 l 431 -1 z "},"v":{"ha":976,"x_min":15,"x_max":964,"o":"m 250 686 l 490 207 l 731 686 l 964 686 l 626 0 l 354 0 l 15 686 l 250 686 z "},"w":{"ha":1599,"x_min":29,"x_max":1583,"o":"m 613 0 l 340 0 l 29 686 l 261 686 l 476 207 l 690 686 l 919 686 l 1135 207 l 1349 686 l 1583 686 l 1271 0 l 999 0 l 806 429 l 613 0 z "},"x":{"ha":1001,"x_min":28,"x_max":976,"o":"m 349 686 l 496 503 l 650 686 l 913 686 l 661 383 l 976 0 l 710 0 l 504 256 l 293 0 l 28 0 l 336 376 l 82 686 l 349 686 z "},"y":{"ha":988,"x_min":24,"x_max":968,"o":"m 254 686 l 496 207 l 736 686 l 968 686 l 631 0 q 464 -221 550 -162 q 144 -293 356 -293 l 144 -86 q 267 -75 231 -86 q 357 0 328 -58 l 24 686 l 254 686 z "},"z":{"ha":956,"x_min":57,"x_max":892,"o":"m 892 686 l 892 508 l 399 193 l 892 193 l 892 0 l 57 0 l 57 185 l 515 494 l 63 494 l 63 686 l 892 686 z "},"{":{"ha":439,"x_min":44,"x_max":436,"o":"m 300 578 q 214 428 300 471 q 300 283 300 383 l 300 22 q 332 -78 300 -49 q 436 -107 364 -107 l 436 -183 q 238 -142 314 -183 q 140 22 140 -90 l 140 292 q 44 428 140 374 q 140 564 140 479 l 140 803 q 436 1044 140 1044 l 435 968 q 330 938 360 968 q 300 833 300 908 l 300 578 z "},"|":{"ha":289,"x_min":85,"x_max":206,"o":"m 206 -185 l 85 -185 l 85 1026 l 206 1026 l 206 -185 z "},"}":{"ha":436,"x_min":25,"x_max":417,"o":"m 26 968 l 25 1044 q 321 803 321 1044 l 321 564 q 417 428 321 479 q 321 292 321 376 l 321 22 q 222 -142 321 -87 q 25 -183 146 -183 l 25 -107 q 128 -78 96 -107 q 160 22 160 -49 l 160 283 q 247 428 160 382 q 160 578 160 471 l 160 833 q 130 938 160 907 q 26 968 100 968 z "},"~":{"ha":854,"x_min":83,"x_max":761,"o":"m 83 472 q 157 608 92 561 q 310 651 217 651 q 388 642 353 651 q 442 618 413 635 q 546 581 508 581 q 633 649 626 581 l 761 649 q 699 513 761 560 q 551 469 643 469 q 417 506 479 469 q 371 531 382 525 q 314 542 346 542 q 218 472 232 542 l 83 472 z "},"¢":{"ha":1136,"x_min":121,"x_max":1032,"o":"m 678 269 q 764 286 736 269 q 808 357 800 306 l 1032 357 q 929 167 1032 232 q 710 111 843 111 l 642 111 l 642 33 l 507 33 l 507 111 l 442 111 q 199 184 276 111 q 121 421 121 257 l 121 490 q 449 800 121 800 l 507 800 l 507 889 l 642 889 l 642 800 l 707 800 q 928 746 840 800 q 1032 557 1032 682 l 799 557 q 681 636 779 636 l 642 636 l 642 269 l 678 269 m 465 636 q 331 486 331 636 l 331 419 q 468 269 331 269 l 507 269 l 507 636 l 465 636 z "},"«":{"ha":896,"x_min":29,"x_max":853,"o":"m 29 419 l 419 728 l 506 626 l 197 388 l 506 151 l 422 47 l 29 350 l 29 419 m 375 419 l 765 728 l 853 626 l 544 388 l 853 151 l 768 47 l 375 350 l 375 419 z "},"°":{"ha":410,"x_min":63,"x_max":356,"o":"m 182 935 l 233 935 q 326 912 296 935 q 356 828 356 889 l 356 804 q 238 707 356 707 l 183 707 q 63 804 63 707 l 63 829 q 91 913 63 890 q 182 935 119 935 m 107 806 q 185 747 107 747 l 233 747 q 310 804 310 747 l 310 829 q 290 882 310 867 q 233 893 274 893 l 183 893 q 107 829 107 893 l 107 806 z "},"±":{"ha":803,"x_min":76,"x_max":708,"o":"m 688 344 l 688 151 l 99 151 l 99 344 l 688 344 m 286 767 l 286 968 l 486 968 l 486 767 l 708 767 l 708 575 l 486 575 l 486 375 l 286 375 l 286 575 l 76 575 l 76 767 l 286 767 z "},"¸":{"ha":431,"x_min":58,"x_max":364,"o":"m 364 -125 q 93 -271 364 -271 l 72 -271 q 58 -269 64 -271 l 58 -129 q 78 -131 71 -131 q 182 -68 182 -131 l 182 0 l 364 0 l 364 -125 z "},"»":{"ha":931,"x_min":44,"x_max":874,"o":"m 44 156 l 347 388 l 47 621 l 135 722 l 514 419 l 514 350 l 132 56 l 44 156 m 404 156 l 706 388 l 407 621 l 494 722 l 874 419 l 874 350 l 492 56 l 404 156 z "},"÷":{"ha":763,"x_min":14,"x_max":744,"o":"m 14 404 l 744 404 l 744 328 l 14 328 l 14 404 m 372 633 q 428 611 406 633 q 450 556 450 589 q 428 500 450 522 q 372 478 406 478 q 317 500 339 478 q 294 556 294 522 q 317 611 294 589 q 372 633 339 633 m 372 254 q 428 232 406 254 q 450 176 450 210 q 428 121 450 143 q 372 99 406 99 q 317 121 339 99 q 294 176 294 143 q 317 232 294 210 q 372 254 339 254 z "},"˙":{"ha":410,"x_min":69,"x_max":351,"o":"m 69 997 l 351 997 l 351 765 l 69 765 l 69 997 z "},"˚":{"ha":399,"x_min":53,"x_max":346,"o":"m 157 994 l 244 994 q 346 903 346 994 l 346 856 q 244 765 346 765 l 157 765 q 53 856 53 765 l 53 903 q 157 994 53 994 m 100 857 q 161 806 100 806 l 242 806 q 301 857 301 806 l 301 901 q 242 953 301 953 l 161 953 q 100 901 100 953 l 100 857 z "},"˛":{"ha":438,"x_min":72,"x_max":378,"o":"m 256 -68 q 351 -131 256 -131 l 368 -131 q 378 -129 374 -131 l 378 -269 l 364 -269 q 340 -271 354 -269 q 72 -125 72 -271 l 72 0 l 256 0 l 256 -68 z "},"˝":{"ha":564,"x_min":75,"x_max":517,"o":"m 313 1046 l 144 772 l 75 790 l 168 1094 l 313 1046 m 517 1046 l 350 772 l 281 790 l 372 1094 l 517 1046 z "},"Δ":{"ha":850,"x_min":8,"x_max":844,"o":"m 844 0 l 8 0 l 453 956 l 844 0 m 100 68 l 672 68 l 403 718 l 100 68 z "},"Ω":{"ha":1067,"x_min":47,"x_max":1022,"o":"m 457 0 l 47 0 l 47 225 l 68 225 q 97 158 79 176 q 160 140 114 140 l 379 140 l 376 179 q 246 232 292 204 q 144 331 188 268 q 75 554 75 432 q 122 740 75 657 q 208 847 161 808 q 396 939 288 911 q 535 956 463 956 q 792 893 682 956 q 861 847 839 865 q 959 717 924 796 q 994 554 994 638 q 924 330 994 432 q 693 179 854 228 l 690 140 l 910 140 q 974 161 954 140 q 1001 225 990 178 l 1022 225 l 1022 0 l 613 0 l 635 211 q 713 250 697 239 q 798 368 764 288 q 832 558 832 449 q 736 839 832 743 q 535 911 664 911 q 333 839 406 911 q 238 556 238 743 q 335 269 238 369 q 435 211 361 243 l 457 0 z "},"µ":{"ha":800,"x_min":44,"x_max":788,"o":"m 204 694 l 204 233 q 276 86 204 119 q 336 72 306 72 q 446 121 390 72 q 492 179 478 149 l 492 694 l 611 694 l 611 163 q 628 88 611 121 q 686 46 649 46 q 747 94 735 46 q 760 142 754 119 l 788 142 q 764 67 775 89 q 703 3 743 28 q 619 -22 663 -22 q 550 -1 578 -22 q 493 114 507 32 q 394 17 453 58 q 265 -24 336 -24 q 183 4 224 -24 q 135 44 144 38 l 135 13 q 150 -82 135 -35 q 181 -211 181 -176 q 165 -275 181 -247 q 113 -310 146 -310 q 60 -275 79 -310 q 44 -210 44 -246 q 69 -89 44 -182 q 85 13 85 -31 l 85 694 l 204 694 z "},"π":{"ha":763,"x_min":14,"x_max":736,"o":"m 308 556 q 244 68 281 233 q 168 -26 228 -11 q 151 -28 163 -28 q 108 -12 129 -28 q 83 25 86 3 q 79 49 79 43 q 92 89 79 71 q 114 118 106 107 q 158 174 151 163 q 183 238 179 206 l 224 556 l 158 556 q 67 511 97 556 l 38 468 l 14 468 q 39 539 26 503 q 126 651 75 618 q 207 675 164 675 l 725 675 l 725 556 l 550 556 q 533 229 533 392 q 568 128 533 160 q 624 104 593 104 q 672 123 650 104 q 700 167 694 142 q 707 208 703 182 l 736 208 q 713 88 736 146 q 636 -6 685 21 q 569 -24 603 -24 q 483 31 521 -24 q 443 126 453 75 q 438 231 438 160 q 442 332 438 293 l 465 556 l 308 556 z "},"‘":{"ha":418,"x_min":53,"x_max":372,"o":"m 331 515 l 53 515 l 53 786 q 146 986 53 928 q 372 1033 219 1033 l 372 904 q 294 890 317 904 q 268 821 268 874 l 268 786 l 331 786 l 331 515 z "},"’":{"ha":457,"x_min":67,"x_max":386,"o":"m 108 992 l 386 992 l 386 721 q 293 519 386 578 q 67 474 219 474 l 67 603 q 147 618 122 603 q 171 686 171 633 l 171 721 l 108 721 l 108 992 z "},"‚":{"ha":458,"x_min":68,"x_max":388,"o":"m 110 394 l 388 394 l 388 124 q 294 -78 388 -19 q 68 -124 221 -124 l 68 6 q 148 21 124 6 q 172 89 172 36 l 172 124 l 110 124 l 110 394 z "},"“":{"ha":796,"x_min":53,"x_max":764,"o":"m 331 515 l 53 515 l 53 786 q 146 986 53 928 q 372 1033 219 1033 l 372 904 q 294 890 317 904 q 268 821 268 874 l 268 786 l 331 786 l 331 515 m 722 515 l 444 515 l 444 786 q 538 988 444 929 q 764 1033 611 1033 l 764 904 q 686 890 708 904 q 660 821 660 874 l 660 786 l 722 786 l 722 515 z "},"”":{"ha":881,"x_min":100,"x_max":810,"o":"m 533 992 l 810 992 l 810 721 q 718 521 810 578 q 492 474 644 474 l 492 603 q 568 617 547 603 q 594 686 594 635 l 594 721 l 533 721 l 533 992 m 142 992 l 419 992 l 419 721 q 326 519 419 578 q 100 474 253 474 l 100 603 q 180 618 156 603 q 204 686 204 633 l 204 721 l 142 721 l 142 992 z "},"„":{"ha":817,"x_min":68,"x_max":779,"o":"m 501 394 l 779 394 l 779 124 q 686 -76 779 -18 q 460 -124 611 -124 l 460 6 q 540 21 515 6 q 564 89 564 36 l 564 124 l 501 124 l 501 394 m 110 394 l 388 394 l 388 124 q 294 -78 388 -19 q 68 -124 221 -124 l 68 6 q 148 21 124 6 q 172 89 172 36 l 172 124 l 110 124 l 110 394 z "},"•":{"ha":675,"x_min":103,"x_max":582,"o":"m 582 385 q 511 220 582 286 q 342 154 440 154 q 172 220 242 154 q 103 385 103 286 q 173 549 103 482 q 342 615 243 615 q 511 549 440 615 q 582 385 582 483 z "},"‰":{"ha":2657,"x_min":61,"x_max":2617,"o":"m 472 390 l 376 390 q 132 435 192 390 q 61 663 61 488 l 61 740 q 129 983 61 925 q 381 1036 190 1036 l 475 1036 q 733 986 668 1036 q 811 743 811 926 l 811 665 q 731 431 811 483 q 472 390 671 390 m 853 -46 l 707 -46 l 1003 1011 l 1149 1011 l 853 -46 m 1468 -10 l 1372 -10 q 1128 33 1186 -10 q 1056 263 1056 88 l 1056 340 q 1124 583 1056 525 q 1375 636 1185 636 l 1471 636 q 1729 586 1664 636 q 1807 343 1807 526 l 1807 265 q 1726 31 1807 83 q 1468 -10 1667 -10 m 2278 -10 l 2182 -10 q 1938 35 1997 -10 q 1867 263 1867 88 l 1867 340 q 1935 583 1867 525 q 2186 636 1996 636 l 2281 636 q 2539 586 2474 636 q 2617 343 2617 526 l 2617 265 q 2536 31 2617 83 q 2278 -10 2476 -10 m 467 890 l 394 890 q 258 867 288 890 q 222 738 222 839 l 222 671 q 260 551 222 578 q 389 532 288 532 l 469 532 q 608 550 578 532 q 650 674 650 576 l 650 740 q 610 871 650 843 q 467 890 579 890 m 2272 490 l 2200 490 q 2064 467 2093 490 q 2028 338 2028 439 l 2028 271 q 2065 151 2028 178 q 2194 132 2093 132 l 2275 132 q 2414 150 2383 132 q 2456 274 2456 176 l 2456 340 q 2415 471 2456 443 q 2272 490 2385 490 m 1461 490 l 1389 490 q 1253 467 1283 490 q 1218 338 1218 439 l 1218 271 q 1254 153 1218 178 q 1383 132 1283 132 l 1465 132 q 1604 150 1574 132 q 1646 274 1646 176 l 1646 340 q 1604 469 1646 443 q 1461 490 1574 490 z "},"‹":{"ha":540,"x_min":29,"x_max":506,"o":"m 29 419 l 419 728 l 506 626 l 197 388 l 506 151 l 422 47 l 29 350 l 29 419 z "},"›":{"ha":526,"x_min":25,"x_max":494,"o":"m 25 156 l 326 388 l 28 621 l 114 722 l 494 419 l 494 350 l 111 56 l 25 156 z "},"∂":{"ha":686,"x_min":36,"x_max":642,"o":"m 90 996 q 275 1036 182 1036 q 465 971 376 1036 q 575 842 528 925 q 642 546 642 724 q 626 388 642 482 q 514 81 594 190 q 297 -29 433 -29 q 76 90 160 -29 q 38 217 38 146 q 36 246 36 226 q 115 461 36 364 q 311 558 193 558 q 411 539 371 558 q 519 464 440 525 q 535 625 535 544 q 489 849 535 733 q 429 932 469 897 q 335 969 383 969 q 313 971 328 969 q 292 972 299 972 q 144 926 246 972 l 90 996 m 358 504 q 225 429 281 504 q 156 206 156 335 q 219 32 156 75 q 282 13 249 13 q 335 25 306 13 q 447 154 407 57 q 508 415 488 251 q 454 471 468 460 q 358 504 413 504 z "},"∏":{"ha":1143,"x_min":35,"x_max":1115,"o":"m 981 4 q 1017 -87 981 -64 q 1115 -108 1044 -108 l 1115 -140 l 690 -140 l 690 -108 q 789 -87 760 -108 q 824 4 824 -62 l 824 967 l 326 967 l 326 4 q 363 -87 326 -64 q 461 -108 390 -108 l 461 -140 l 35 -140 l 35 -108 q 133 -87 106 -108 q 169 4 169 -64 l 169 874 q 38 1011 169 1011 l 38 1043 l 1111 1043 l 1111 1011 q 981 874 981 1011 l 981 4 z "},"∑":{"ha":990,"x_min":19,"x_max":965,"o":"m 865 814 l 838 814 q 788 926 810 903 q 625 972 743 972 l 260 972 l 639 475 l 231 4 l 746 4 q 868 44 828 4 q 933 161 899 74 l 965 161 q 906 -150 922 -17 q 799 -135 826 -135 l 19 -139 l 504 414 l 22 1044 q 113 1038 39 1044 q 167 1035 142 1035 l 857 1035 l 865 814 z "},"·":{"ha":464,"x_min":93,"x_max":374,"o":"m 93 600 l 374 600 l 374 368 l 93 368 l 93 600 z "},"√":{"ha":763,"x_min":14,"x_max":715,"o":"m 14 625 l 217 725 l 490 165 l 667 1274 l 715 1267 l 507 -53 l 169 644 l 36 579 l 14 625 z "},"∞":{"ha":990,"x_min":36,"x_max":956,"o":"m 675 543 q 761 561 717 561 q 897 510 838 561 q 956 383 956 458 l 956 371 q 901 233 956 293 q 768 174 846 174 l 751 174 q 583 242 663 182 q 496 321 513 307 l 408 236 q 233 174 328 174 l 222 174 q 90 233 144 174 q 36 371 36 292 l 36 388 q 99 511 43 461 q 231 561 156 561 q 317 543 276 561 q 496 413 383 514 q 572 479 550 461 q 675 543 619 518 m 231 489 q 142 450 179 489 q 106 360 106 411 q 144 273 106 307 q 238 239 183 239 q 267 243 250 239 q 376 296 340 261 q 450 367 379 297 q 354 443 388 419 q 231 489 288 489 m 756 239 q 848 273 810 239 q 886 360 886 307 q 849 450 886 411 q 761 489 813 489 q 636 442 706 489 q 542 367 607 422 l 614 299 q 756 239 683 239 z "},"∫":{"ha":381,"x_min":3,"x_max":404,"o":"m 263 378 q 215 -29 261 133 q 175 -114 200 -81 q 135 -137 165 -126 q 86 -149 104 -149 q 26 -119 50 -149 q 3 -65 3 -90 q 40 -11 3 -31 q 64 -4 54 -4 q 99 -18 81 -4 q 119 -38 108 -28 q 139 -49 129 -49 q 175 103 175 -49 q 174 224 175 178 q 167 539 167 450 l 167 739 q 169 956 167 908 q 203 1169 176 1081 q 265 1260 221 1231 q 310 1272 283 1272 q 372 1254 344 1272 q 404 1193 404 1232 q 392 1160 404 1175 q 332 1135 371 1135 q 294 1151 308 1135 q 263 1167 279 1167 q 238 1136 235 1167 q 264 678 264 751 l 263 378 z "},"≈":{"ha":763,"x_min":19,"x_max":732,"o":"m 732 514 q 538 404 668 404 q 485 411 508 404 l 276 471 q 214 481 243 481 q 107 432 151 481 q 79 397 85 403 l 19 435 q 221 544 103 544 q 290 535 256 544 l 500 476 q 535 471 519 471 q 616 492 574 471 q 681 547 658 514 l 732 514 m 732 304 q 538 194 668 194 q 485 201 508 194 l 276 261 q 214 271 243 271 q 107 222 151 271 q 79 188 85 193 l 19 225 q 221 335 103 335 q 290 325 256 335 l 500 267 q 535 261 519 261 q 616 283 574 261 q 681 338 658 304 l 732 304 z "},"≠":{"ha":763,"x_min":21,"x_max":750,"o":"m 626 724 l 521 535 l 750 535 l 750 458 l 479 458 l 371 265 l 750 265 l 750 189 l 329 189 l 204 -35 l 136 4 l 239 189 l 21 189 l 21 265 l 282 265 l 389 458 l 21 458 l 21 535 l 432 535 l 558 763 l 626 724 z "},"≤":{"ha":746,"x_min":99,"x_max":636,"o":"m 636 344 l 636 151 l 99 151 l 99 344 l 636 344 m 142 768 l 553 1038 l 553 851 l 310 703 l 553 553 l 553 367 l 142 631 l 142 768 z "},"≥":{"ha":707,"x_min":97,"x_max":622,"o":"m 622 344 l 622 151 l 97 151 l 97 344 l 622 344 m 146 553 l 390 703 l 146 851 l 146 1038 l 558 768 l 558 631 l 146 367 l 146 553 z "},"◊":{"ha":686,"x_min":25,"x_max":647,"o":"m 294 0 l 25 524 l 294 1035 l 378 1035 l 647 524 l 378 0 l 294 0 m 336 960 l 108 524 l 336 75 l 564 524 l 336 960 z "}," ":{"ha":347,"x_min":0,"x_max":0,"o":""},"":{"ha":1097,"x_min":78,"x_max":1018,"o":"m 472 14 q 399 -4 433 -4 q 322 15 357 -4 q 201 138 263 46 q 135 263 174 179 q 78 529 78 386 q 133 726 78 633 q 286 847 188 819 q 383 861 336 861 q 442 856 417 861 q 503 832 456 851 q 568 817 540 817 q 633 831 600 817 q 692 854 688 853 q 754 861 719 861 q 936 806 868 861 q 989 753 957 789 q 871 597 896 685 q 860 519 860 558 q 906 383 860 443 q 965 322 940 339 l 1018 296 q 954 167 976 206 q 867 54 914 96 q 829 21 854 43 q 738 -4 794 -4 q 664 14 704 -4 q 568 42 603 42 q 472 14 532 42 m 767 985 q 758 965 767 985 q 689 900 749 946 q 642 868 674 888 q 606 860 633 863 l 564 856 q 563 882 563 865 q 571 926 563 904 q 590 974 583 958 q 660 1064 617 1028 q 740 1108 686 1086 q 786 1122 767 1119 l 786 1061 q 767 985 786 1024 z "}}}
